<svg width="800" height="800" viewBox="0 0 800 800" fill="none" xmlns="http://www.w3.org/2000/svg">
<path d="M416.667 234.718C411.247 233.809 405.679 233.335 400 233.335C344.772 233.335 300 278.107 300 333.335C300 388.564 344.772 433.335 400 433.335C455.228 433.335 500 388.564 500 333.335C500 327.657 499.527 322.089 498.617 316.669" stroke="white" stroke-width="46.5455" stroke-linecap="round"/>
<path d="M166.669 507.201C145.087 452.071 133.335 393.376 133.335 338.108C133.335 188.194 252.726 66.6646 400.002 66.6646C547.278 66.6646 666.669 188.194 666.669 338.108C666.669 486.847 581.558 660.412 448.767 722.479C417.811 736.948 382.194 736.948 351.238 722.479C308.827 702.656 271.279 671.46 239.815 633.331" stroke="white" stroke-width="46.5455" stroke-linecap="round"/>
</svg>
