<svg width="800" height="800" viewBox="0 0 800 800" fill="none" xmlns="http://www.w3.org/2000/svg">
<path d="M233.334 111.262C282.363 82.8999 339.286 66.6675 400 66.6675C584.095 66.6675 733.334 215.906 733.334 400.001C733.334 584.096 584.095 733.334 400 733.334C215.905 733.334 66.667 584.096 66.667 400.001C66.667 339.286 82.8994 282.363 111.261 233.334" stroke="white" stroke-width="57.125" stroke-linecap="round"/>
<path d="M494.284 635.703C481.903 666.656 467.204 691.209 451.028 707.96C434.851 724.712 417.513 733.334 400.003 733.334C382.494 733.334 365.156 724.712 348.979 707.961C332.802 691.209 318.104 666.656 305.722 635.703C293.341 604.75 283.52 568.004 276.819 527.562C270.119 487.12 266.67 443.775 266.67 400.001C266.67 356.227 270.119 312.881 276.819 272.44C283.52 231.998 293.341 195.251 305.722 164.298C318.103 133.346 332.802 108.792 348.979 92.0409C365.156 75.2893 382.494 66.6673 400.003 66.6673C417.513 66.6673 434.851 75.2892 451.028 92.0408C467.204 108.792 481.903 133.346 494.284 164.298C506.665 195.251 516.487 231.998 523.187 272.44C529.888 312.881 533.337 356.227 533.337 400.001C533.337 443.775 529.888 487.12 523.187 527.562" stroke="white" stroke-width="57.125" stroke-linecap="round"/>
<path d="M66.667 399.997H333.334M733.334 399.997H466.667" stroke="white" stroke-width="57.125" stroke-linecap="round"/>
</svg>
